<svg width="21" height="18" viewBox="0 0 21 18" fill="none" xmlns="http://www.w3.org/2000/svg">
<path d="M14.4943 1.9736C15.6082 2.03518 16.6526 2.53451 17.3999 3.36279C18.1472 4.19107 18.5369 5.28115 18.484 6.39548C18.484 8.99878 16.2366 10.5979 14.0799 12.5156C11.9512 14.4164 10.8046 15.4553 10.4334 15.6952C10.0292 15.4333 8.6174 14.1503 6.78696 12.5156C4.62093 10.5902 2.38288 8.9759 2.38288 6.39548C2.32997 5.28115 2.71963 4.19107 3.46696 3.36279C4.21428 2.53451 5.25868 2.03518 6.37257 1.9736C6.98962 1.9549 7.60096 2.09663 8.14684 2.38494C8.69271 2.67325 9.15443 3.09827 9.48687 3.61846C10.1987 4.61418 10.3173 5.11247 10.436 5.11247C10.5546 5.11247 10.6716 4.61419 11.3766 3.61592C11.7072 3.09333 12.1691 2.66662 12.7162 2.37843C13.2633 2.09023 13.8764 1.95064 14.4943 1.9736ZM14.4943 0.278745C13.7248 0.254107 12.9596 0.403387 12.2558 0.715467C11.552 1.02755 10.9276 1.49439 10.4292 2.08122C9.93123 1.4961 9.30815 1.03033 8.606 0.71835C7.90385 0.406364 7.14058 0.256129 6.37257 0.278745C4.80895 0.339888 3.33317 1.01769 2.26791 2.16393C1.20266 3.31017 0.634628 4.83158 0.688021 6.39548C0.688021 9.45469 2.84896 11.3334 4.93787 13.1495C5.17769 13.3579 5.42006 13.5681 5.66073 13.7825L6.53104 14.5604C7.48019 15.4636 8.47526 16.3173 9.51229 17.118C9.78667 17.2956 10.1066 17.3902 10.4334 17.3902C10.7603 17.3902 11.0802 17.2956 11.3546 17.118C12.4246 16.2928 13.4503 15.4117 14.4274 14.4782L15.2087 13.78C15.457 13.5596 15.7087 13.3401 15.9587 13.1241C17.9366 11.408 20.1789 9.46317 20.1789 6.39548C20.2323 4.83158 19.6642 3.31017 18.599 2.16393C17.5337 1.01769 16.0579 0.339888 14.4943 0.278745Z" fill="#262626"/>
</svg>
