<svg width="96" height="96" viewBox="0 0 96 96" fill="none" xmlns="http://www.w3.org/2000/svg">
<path d="M48 95C73.9574 95 95 73.9574 95 48C95 22.0426 73.9574 1 48 1C22.0426 1 1 22.0426 1 48C1 73.9574 22.0426 95 48 95Z" stroke="black" stroke-width="2" stroke-linecap="round" stroke-linejoin="round"/>
<path d="M37.9989 39.996V32.998C37.9989 30.3459 39.0525 27.8023 40.9279 25.927C42.8032 24.0516 45.3468 22.998 47.9989 22.998C50.6511 22.998 53.1947 24.0516 55.07 25.927C56.9454 27.8023 57.9989 30.3459 57.9989 32.998V39.996M60.9309 70.001H35.0649C34.4036 70.0053 33.7479 69.8792 33.1353 69.63C32.5227 69.3808 31.9652 69.0134 31.4946 68.5487C31.0239 68.084 30.6495 67.5312 30.3925 66.9218C30.1355 66.3124 30.0011 65.6584 29.9969 64.997V46.005C30.001 45.3436 30.1353 44.6895 30.3922 44.08C30.6491 43.4705 31.0236 42.9175 31.4942 42.4528C31.9648 41.988 32.5224 41.6205 33.1351 41.3712C33.7477 41.122 34.4035 40.9958 35.0649 41H60.9299C61.5912 40.996 62.2467 41.1222 62.8591 41.3714C63.4716 41.6207 64.0289 41.9882 64.4993 42.4528C64.9698 42.9175 65.3441 43.4703 65.6008 44.0796C65.8576 44.6889 65.9919 45.3428 65.9959 46.004V64.996C65.9919 65.6573 65.8576 66.3112 65.6008 66.9205C65.3441 67.5298 64.9698 68.0826 64.4993 68.5473C64.0289 69.0119 63.4716 69.3794 62.8591 69.6287C62.2467 69.8779 61.5912 70.0041 60.9299 70L60.9309 70.001Z" stroke="black" stroke-width="2" stroke-linecap="round" stroke-linejoin="round"/>
</svg>
