<svg width="22" height="22" viewBox="0 0 22 22" fill="none" xmlns="http://www.w3.org/2000/svg">
<path d="M21 22.0001H14.999C14.7338 22.0001 14.4794 21.8947 14.2919 21.7072C14.1044 21.5196 13.999 21.2653 13.999 21.0001V15.5451C14.0063 15.1469 13.9341 14.7514 13.7868 14.3814C13.6395 14.0115 13.4199 13.6747 13.141 13.3906C12.862 13.1064 12.5292 12.8808 12.162 12.7267C11.7949 12.5727 11.4007 12.4933 11.0025 12.4933C10.6043 12.4933 10.2101 12.5727 9.84297 12.7267C9.4758 12.8808 9.14301 13.1064 8.86403 13.3906C8.58506 13.6747 8.3655 14.0115 8.21818 14.3814C8.07086 14.7514 7.99873 15.1469 8.006 15.5451V21.0001C8.006 21.2653 7.90064 21.5196 7.71311 21.7072C7.52557 21.8947 7.27122 22.0001 7.006 22.0001H1C0.734784 22.0001 0.48043 21.8947 0.292893 21.7072C0.105357 21.5196 0 21.2653 0 21.0001V10.5431C8.99233e-05 10.4077 0.0276051 10.2738 0.0808849 10.1493C0.134165 10.0249 0.212104 9.91254 0.31 9.81905L10.31 0.276054C10.4961 0.0989914 10.7431 0.000244141 11 0.000244141C11.2569 0.000244141 11.5039 0.0989914 11.69 0.276054L21.69 9.81905C21.7879 9.91254 21.8658 10.0249 21.9191 10.1493C21.9724 10.2738 21.9999 10.4077 22 10.5431V21.0001C22 21.2653 21.8946 21.5196 21.7071 21.7072C21.5196 21.8947 21.2652 22.0001 21 22.0001Z" fill="black"/>
</svg>
